<svg height="512pt" viewBox="0 0 512 512" width="512pt" xmlns="http://www.w3.org/2000/svg"><path d="m256 0c-140.699219 0-256 115.300781-256 256s115.300781 256 256 256 256-115.300781 256-256-115.300781-256-256-256zm0 0" fill="#ff3939"/><path d="m512 256c0 140.699219-115.300781 256-256 256v-512c140.699219 0 256 115.300781 256 256zm0 0" fill="#ff001e"/><path d="m271 106v90c0 8.398438-6.597656 15-15 15s-15-6.601562-15-15v-90c0-8.402344 6.597656-15 15-15s15 6.597656 15 15zm0 0" fill="#ececf1"/><path d="m420.398438 271c-7.800782 84-78.597657 150-164.398438 150-84.300781 0-156.597656-63.601562-164.398438-150-6.300781-71.398438 33.597657-138 98.398438-166.199219 4.800781-2.101562 9.902344-1.5 14.101562 1.199219 4.5 2.699219 6.898438 7.5 6.898438 12.597656v34.203125c0 5.398438-3 10.195313-7.800781 12.898438-36.597657 21.300781-57.296875 62.402343-51 105.300781 7.203125 51 51 90 103.800781 90s96.601562-38.101562 103.800781-90c6.300781-45-15.898437-84.902344-51-105.300781-4.800781-2.703125-7.796875-7.5-7.796875-12.898438v-34.203125c0-5.097656 2.398438-9.898437 6.898438-12.597656 4.199218-2.699219 9.597656-3.300781 14.101562-1.199219 65.097656 28.5 104.695313 95.398438 98.394532 166.199219zm0 0" fill="#ececf1"/><g fill="#e2e2e7"><path d="m256 211v-120c8.402344 0 15 6.597656 15 15v90c0 8.398438-6.597656 15-15 15zm0 0"/><path d="m420.398438 271c-7.800782 84-78.597657 150-164.398438 150v-60c52.800781 0 96.597656-38.101562 103.800781-90 6.300781-45-15.902343-84.902344-51-105.300781-4.800781-2.699219-7.800781-7.5-7.800781-12.898438v-34.199219c0-5.101562 2.402344-9.902343 6.898438-12.601562 4.203124-2.699219 9.601562-3.300781 14.101562-1.199219 65.101562 28.5 104.699219 95.398438 98.398438 166.199219zm0 0"/></g></svg>