<svg height="512pt" viewBox="0 0 512 512" width="512pt" xmlns="http://www.w3.org/2000/svg"><path d="m256 0c-140.609375 0-256 115.390625-256 256s115.390625 256 256 256 256-115.390625 256-256-115.390625-256-256-256zm-15 106c0-8.289062 6.710938-15 15-15s15 6.710938 15 15v90c0 8.289062-6.710938 15-15 15s-15-6.710938-15-15zm179.324219 165.003906c-7.605469 83.976563-78.398438 149.996094-164.324219 149.996094-84.410156 0-156.507812-63.597656-164.320312-150-6.453126-71.3125 33.605468-137.867188 98.300781-166.214844 4.671875-2.039062 10.019531-1.582031 14.222656 1.1875 4.246094 2.765625 6.796875 7.484375 6.796875 12.550782v34.136718c0 5.449219-3.109375 10.222656-7.816406 12.96875-36.609375 21.386719-57.269532 62.4375-51.117188 105.390625 7.285156 50.871094 51.042969 89.980469 103.933594 89.980469 52.925781-.003906 96.730469-38.226562 103.949219-89.964844 6.261719-44.890625-16.027344-84.902344-51.144531-105.410156-4.699219-2.746094-7.804688-7.507812-7.804688-12.953125v-34.148437c0-5.066407 2.550781-9.785157 6.796875-12.550782 4.234375-2.785156 9.566406-3.238281 14.222656-1.1875 65.128907 28.539063 104.71875 95.390625 98.304688 166.21875zm0 0"/></svg>